<svg width="600" height="202" xmlns="http://www.w3.org/2000/svg" xmlns:xlink="http://www.w3.org/1999/xlink" xml:space="preserve" overflow="hidden"><g transform="translate(-1242 -728)"><g><path d="M1384 765.667 1384 894C1384 879.825 1352.66 868.333 1314 868.333 1275.34 868.333 1244 879.825 1244 894L1244 765.667C1244 751.491 1275.34 740 1314 740 1352.66 740 1384 751.491 1384 765.667Z" fill="#FF40FF" fill-rule="evenodd" fill-opacity="1"/><text fill="#FF40FF" fill-opacity="1" font-family="DengXian,DengXian_MSFontService,sans-serif" font-style="normal" font-variant="normal" font-weight="700" font-stretch="normal" font-size="92" text-anchor="start" direction="ltr" writing-mode="lr-tb" unicode-bidi="normal" text-decoration="none" transform="matrix(1 0 0 1 1449.25 847)">OneJam</text><path d="M1449.25 861.281 1533.5 861.281 1617.75 861.281 1702 861.281 1786.25 861.281 1786.25 869.281 1702 869.281 1617.75 869.281 1533.5 869.281 1449.25 869.281Z" fill="#FF40FF" fill-rule="evenodd" fill-opacity="1"/></g></g></svg>